<?xml version="1.0" encoding="utf-8"?>
<!-- Generator: Adobe Illustrator 23.0.1, SVG Export Plug-In . SVG Version: 6.00 Build 0)  -->
<svg version="1.1" id="Layer_1" xmlns="http://www.w3.org/2000/svg" xmlns:xlink="http://www.w3.org/1999/xlink" x="0px" y="0px"
	 viewBox="0 0 1920 1920" style="enable-background:new 0 0 1920 1920;" xml:space="preserve">
<style type="text/css">
	.st0{fill:#C3996B;}
	.st1{fill:#2E3191;}
	.st2{fill:#0071BB;}
</style>
<g>
	<g>
		<rect x="753" y="1193.2" class="st0" width="207.2" height="4"/>
	</g>
	<g>
		<rect x="1513.6" y="1193.2" class="st0" width="207.2" height="4"/>
	</g>
</g>
<g>
	<polyline class="st0" points="751.8,1040 1206.1,1040 1206.1,1052.4 751.8,1052.4 	"/>
	<g>
		<path class="st0" d="M1216.1,1091c-4.2-4.6-6.4-10.9-6.4-19.1c0-6.4,1-11.7,3-16.1c2-4.4,5.2-8.4,9.5-12.1
			c-2.4-3.6-4.4-7.1-5.8-10.5c-1.4-3.5-2.2-7.1-2.2-11c0-7.1,1.6-12.6,4.7-16.4c3.1-3.8,7.5-5.7,13-5.7c5.8,0,10.3,2.1,13.3,6.3
			c3,4.2,4.6,9.6,4.6,16.2v4h-12.7v-5.9c0-2.6-0.5-4.6-1.3-6.1c-0.9-1.4-2.2-2.2-3.8-2.2c-1.7,0-3.1,0.7-4,2.2
			c-0.9,1.5-1.4,4-1.4,7.4c0,2.6,0.5,5,1.5,7.1c1,2.2,2.7,5,5.1,8.6l1.8,2.9l15,23.8c0.8-3.1,1.2-7.1,1.2-12.1V1041h469.6v12.4
			h-455.6c-1,0-1.7,0.3-2.1,0.9c-0.4,0.6-0.6,1.7-0.6,3.2c0,8.9-1.2,16.3-3.5,22.1l10.3,16H1255l-3.8-5.9c-2.6,3.1-5.2,5.2-8,6.4
			c-2.8,1.2-6.2,1.7-10.3,1.7C1225.9,1097.8,1220.3,1095.5,1216.1,1091z M1239.8,1084.2c1.8-0.8,3.6-2.2,5.2-4.3l-15.7-25.1
			c-2.5,2.2-4.3,4.6-5.4,7.1c-1.1,2.6-1.6,5.8-1.6,9.9c0,4.3,1,7.7,3.1,10c2.1,2.4,4.6,3.5,7.6,3.5
			C1235.7,1085.4,1237.9,1085,1239.8,1084.2z"/>
	</g>
</g>
<g>
	<g>
		<path class="st1" d="M1191.9,673.7c-4.7-4.1-8.3-9.7-10.7-17c-2.4-7.2-3.7-15.6-3.7-25.1c0-9.6,1.1-18.2,3.4-25.6
			c2.2-7.5,5.7-13.3,10.3-17.5c4.7-4.2,10.4-6.4,17.4-6.4c4.7,0,8.7,0.7,11.9,2c3.3,1.3,6.5,3.5,9.6,6.5v16.5h-12.6v-10
			c-1.2-0.8-2.4-1.3-3.7-1.7c-1.2-0.3-2.8-0.5-4.6-0.5c-6.2,0-11,3.2-14.3,9.7c-3.3,6.4-5,15.4-5,27c0,11.2,1.7,19.8,5.1,26.1
			c3.4,6.2,8.3,9.3,14.5,9.3c3.8,0,8.6-0.8,11.5-2.3v-24.8h11.3v30.3c-3.2,3.4-6.7,5.8-10.5,7.4c-3.8,1.5-8.1,2.3-12.8,2.3
			C1202.3,679.9,1196.6,677.8,1191.9,673.7z"/>
	</g>
	<g>
		<path class="st0" d="M753,708.4h463.2c1.3,0,2.2-0.4,2.8-1.3c0.6-0.9,0.9-2.2,0.9-4v-60.4c0-1.8-0.3-3.2-0.8-4
			c-0.5-0.9-1.5-1.3-2.8-1.3h-13.7v-9.8h35v9.9h-1.7c-2.1,0-3.2,1.7-3.2,5.2v29.1l19.6-31.6h-4.4v-12.6h22.8v12.6h-3.5
			c-1.2,0-2.1,0.3-2.8,0.9c-0.6,0.6-1.4,1.6-2.3,3l-14.7,23.5l16.2,37c0.6,1.3,1.3,2.3,2,3c0.8,0.6,1.7,0.9,2.9,0.9h452.3V721
			h-473.2v-12.6h5.3l-12.8-29.4l-7.3,11.7v12.4c0,1.7,0.2,3.1,0.7,4c0.5,0.9,1.3,1.4,2.5,1.4h1.7V721H753V708.4z"/>
	</g>
	<path class="st1" d="M1237.7,627.6h-35v12.5l14.2,0.1c1.8,0,3,0.7,3,2.5l0,2h12.8l0.1-2.2c0-0.9,0.8-2.2,1.8-2.2l3.2,0V627.6z"/>
</g>
<g>
	<path class="st1" d="M1285.6,1096.2c-1.4,0-2.7-0.4-3.8-1.2c-1.1-0.8-2-1.9-2.8-3.2s-1.3-3-1.7-4.9c-0.4-1.9-0.6-3.9-0.6-6
		c0-2.5,0.2-4.7,0.7-6.6c0.5-1.9,1.1-3.5,1.9-4.8c0.8-1.3,1.7-2.3,2.7-2.9c1-0.7,2.1-1,3.2-1c0.6,0,1.1,0.1,1.6,0.3
		c0.5,0.2,0.9,0.4,1.2,0.7c0.3,0.3,0.6,0.6,0.9,0.9c0.2,0.4,0.4,0.7,0.5,1h0.2v-2.4h3.3v9.5h-3.3v-1.9c0-1.5-0.3-2.6-1-3.5
		c-0.6-0.9-1.6-1.3-2.8-1.3c-1.3,0-2.3,0.6-3,1.8c-0.7,1.2-1.1,3.1-1.1,5.6v8.7c0,1.3,0.1,2.5,0.3,3.4c0.2,0.9,0.5,1.7,1,2.3
		c0.4,0.6,0.9,1.1,1.4,1.4c0.6,0.3,1.2,0.4,1.8,0.4c1.2,0,2.2-0.5,3.1-1.4c0.8-1,1.5-2.2,1.9-3.9l1.6,1.4c-0.2,1.1-0.6,2.1-1,3
		s-1,1.8-1.6,2.5c-0.6,0.7-1.3,1.3-2.1,1.7S1286.5,1096.2,1285.6,1096.2z"/>
	<path class="st1" d="M1306,1096.2c-1.3,0-2.6-0.3-3.7-1c-1.1-0.7-2.1-1.7-3-3c-0.8-1.3-1.5-2.9-2-4.8s-0.7-4.1-0.7-6.6
		s0.2-4.7,0.7-6.6s1.1-3.5,2-4.8c0.8-1.3,1.8-2.3,3-3c1.1-0.7,2.4-1,3.7-1s2.6,0.3,3.7,1c1.1,0.7,2.1,1.7,3,3c0.8,1.3,1.5,2.9,2,4.8
		s0.7,4.1,0.7,6.6s-0.2,4.7-0.7,6.6s-1.1,3.5-2,4.8c-0.8,1.3-1.8,2.3-3,3C1308.6,1095.8,1307.3,1096.2,1306,1096.2z M1306,1093
		c0.6,0,1.1-0.1,1.6-0.4s1-0.7,1.3-1.3c0.4-0.6,0.7-1.4,0.9-2.3c0.2-0.9,0.3-2.1,0.3-3.4v-9.6c0-1.3-0.1-2.4-0.3-3.4
		c-0.2-0.9-0.5-1.7-0.9-2.3c-0.4-0.6-0.8-1-1.3-1.3c-0.5-0.3-1.1-0.4-1.6-0.4s-1.1,0.1-1.6,0.4c-0.5,0.3-1,0.7-1.3,1.3
		c-0.4,0.6-0.7,1.4-0.9,2.3s-0.3,2.1-0.3,3.4v9.6c0,1.3,0.1,2.4,0.3,3.4c0.2,0.9,0.5,1.7,0.9,2.3c0.4,0.6,0.8,1,1.3,1.3
		S1305.4,1093,1306,1093z"/>
</g>
<g>
	<path class="st2" d="M985.4,1198.5c-0.1,0.8-1,4.2-1.3,5.1h-15.4v-1.1c2.7-0.3,2.9-0.4,2.9-2.9v-11.4c0-2.5-0.4-2.7-2.4-2.9v-1.1
		h9.7c3.1,0,4.2,0,4.6-0.1c0,0.5,0.2,3,0.3,4.8l-1.2,0.1c-0.3-1-0.8-2.2-1.3-2.8c-0.5-0.6-0.9-0.8-2.4-0.8H977
		c-1.1,0-1.3,0.1-1.3,1.1v6.2h2.9c1.7,0,2-0.4,2.4-2.6h1.2v6.6h-1.2c-0.5-2.2-0.7-2.6-2.4-2.6h-2.9v5.1c0,2.1,0.1,2.7,1.9,2.7h2.1
		c1.7,0,2.1-0.2,2.8-1c0.7-0.9,1.3-2,1.8-3L985.4,1198.5z"/>
	<path class="st2" d="M1009.2,1203.5v-1.1c2.3-0.2,2.4-0.4,2.4-3.1l0-11.6c-2.1,5.1-4.5,10.8-6.6,15.8h-1c-1.9-4.8-4-10.4-6.2-15.6
		c-0.4,9.3-0.4,11.2-0.4,12.3c0,1.6,0.6,2,2.9,2.2v1.1h-7.4v-1.1c1.7-0.1,2.5-0.5,2.7-2.3c0.1-0.9,0.2-2.6,0.9-12.4
		c0.1-1.4-0.1-2.2-2.7-2.5v-1.1h6.4l5.7,13.1l5.8-13.1h6.3v1.1c-2.4,0.2-2.6,0.5-2.6,2.9l0.2,11.2c0,2.7,0.1,2.8,2.6,3.1v1.1H1009.2
		z"/>
	<path class="st2" d="M1037.9,1192.9c3.1,0.6,5.3,2.1,5.3,4.9c0,1.8-1.2,3.6-2.9,4.5c-1.5,0.8-3.5,1.3-5.7,1.3h-8.3v-1.1
		c2.3-0.2,2.5-0.4,2.5-2.9v-11.3c0-2.5-0.4-2.8-2.5-2.9v-1.1h9c2.3,0,3.7,0.3,4.9,1c1.1,0.7,1.8,1.8,1.8,3.3
		C1042.2,1191,1039.9,1192.5,1037.9,1192.9z M1034.2,1192.5c2.8,0,3.9-1.2,3.9-3.4c0-2.6-1.7-3.6-3.3-3.6c-0.7,0-1.2,0.1-1.4,0.2
		c-0.3,0.2-0.3,0.5-0.3,1.1v5.7H1034.2z M1033,1199.5c0,2.1,1,2.8,2.6,2.8c1.6,0,3.2-1.5,3.2-4.2c0-2.9-1.5-4.3-4.8-4.3h-1V1199.5z"
		/>
	<path class="st2" d="M1070.2,1203.7c-0.2,0-0.5,0-0.9,0c-3.8-0.2-4.9-1-5.8-2.2c-1.2-1.6-2.1-3.5-3.1-5.2c-0.4-0.8-0.9-1-1.8-1
		l-0.6,0v4.3c0,2.4,0.3,2.6,2.5,2.9v1.1h-9.1v-1.1c2.3-0.2,2.5-0.5,2.5-2.9v-11.4c0-2.4-0.3-2.7-2.5-2.9v-1.1h8.6
		c2.6,0,4.2,0.3,5.4,1.1c1.2,0.8,2,2.1,2,4c0,2.6-1.8,4-3.7,4.8c0.4,0.9,1.6,2.8,2.5,4.2c1,1.6,1.7,2.4,2.3,3.1c0.7,0.8,1,1,1.9,1.3
		L1070.2,1203.7z M1058.8,1194c1.3,0,2.3-0.2,2.9-0.8c1-0.8,1.4-2,1.4-3.5c0-3.2-1.8-4.3-3.5-4.3c-0.8,0-1.2,0.1-1.4,0.3
		c-0.2,0.2-0.3,0.5-0.3,1.1v7.1H1058.8z"/>
	<path class="st2" d="M1088.5,1203.5v-1.1c1.9-0.3,1.9-0.6,1.5-1.9c-0.3-0.9-0.8-2.2-1.2-3.4h-5.8c-0.3,0.9-0.7,2.1-1,3
		c-0.6,1.9,0.1,2.1,2.4,2.3v1.1h-7.3v-1.1c1.9-0.2,2.4-0.5,3.4-3l6.2-15.4l1.4-0.3c1.9,5.2,3.9,10.5,5.9,15.4c1.1,2.8,1.4,3,3.3,3.2
		v1.1H1088.5z M1085.9,1189.3c-0.9,2.1-1.7,4.1-2.4,6.3h4.7L1085.9,1189.3z"/>
	<path class="st2" d="M1122.4,1198.4c-0.4,1.5-1.2,3.7-1.7,4.8c-0.8,0.2-3.2,0.8-5.5,0.8c-8,0-11.3-5.1-11.3-9.9
		c0-6.2,4.7-10.3,11.8-10.3c2.6,0,4.9,0.6,5.6,0.7c0.1,1.4,0.4,3.6,0.6,4.9l-1.2,0.2c-0.6-2.3-1.5-3.4-3.1-4
		c-0.7-0.3-1.8-0.4-2.6-0.4c-4.3,0-6.5,3.6-6.5,8.3c0,5.4,2.8,9.1,6.9,9.1c2.5,0,4.2-1.3,5.8-4.6L1122.4,1198.4z"/>
	<path class="st2" d="M1130.9,1203.5v-1.1c2.3-0.2,2.5-0.4,2.5-2.9v-11.3c0-2.5-0.3-2.7-2.5-2.9v-1.1h9.2v1.1
		c-2.2,0.2-2.5,0.4-2.5,2.9v11.3c0,2.5,0.3,2.6,2.5,2.9v1.1H1130.9z"/>
	<path class="st2" d="M1169.3,1185.3c-1.8,0.2-2.4,0.6-2.5,2c-0.1,1.2-0.2,2.2-0.2,4.8v11.8h-1.7l-12.4-14.9v6.7
		c0,2.6,0.1,3.7,0.1,4.6c0.1,1.3,0.7,2,2.9,2.1v1.1h-7.4v-1.1c1.7-0.1,2.4-0.6,2.6-2c0.1-1.1,0.2-2.1,0.2-4.7v-7.1
		c0-1-0.1-1.6-0.6-2.4c-0.5-0.7-1.3-0.8-2.5-1v-1.1h5.8l11.3,13.2v-5.4c0-2.6,0-3.6-0.1-4.7c-0.1-1.3-0.6-1.9-3-2.1v-1.1h7.3V1185.3
		z"/>
	<path class="st2" d="M1197.2,1195.4c-1.7,0.3-1.9,0.4-1.9,2.4v2.3c0,1.1,0,2.1,0.2,2.9c-1.5,0.3-4.8,1-7.2,1c-7,0-11-4.3-11-10.1
		c0-6.7,5.4-10.1,11.8-10.1c2.4,0,5,0.6,6,0.7c0.1,1.3,0.3,3.6,0.5,5.2l-1.2,0.2c-0.7-2.5-1.8-3.8-3.7-4.4c-0.7-0.2-1.8-0.4-2.5-0.4
		c-3.6,0-6.3,3.1-6.3,8.2c0,5.2,1.8,9.4,6.7,9.4c0.6,0,1.4-0.1,1.9-0.4c0.4-0.3,0.7-0.8,0.7-1.7v-2.6c0-2.1-0.4-2.3-2.9-2.6v-1.1
		h8.9V1195.4z"/>
	<path class="st2" d="M1233.5,1198.3c-0.2,1.3-1.1,4.4-1.3,5.2h-14.8v-1.1c2.6-0.2,2.9-0.4,2.9-2.9v-11.3c0-2.5-0.3-2.7-2.5-2.9
		v-1.1h9.3v1.1c-2.3,0.2-2.6,0.4-2.6,2.9v11.5c0,1.6,0.1,2.4,1.7,2.4c0.1,0,1.4,0,1.5,0c1.7,0,2.1-0.4,2.9-1.2
		c0.6-0.6,1.3-1.9,1.9-3.1L1233.5,1198.3z"/>
	<path class="st2" d="M1252.1,1203.5v-1.1c1.9-0.3,1.9-0.6,1.5-1.9c-0.3-0.9-0.8-2.2-1.2-3.4h-5.8c-0.3,0.9-0.7,2.1-1,3
		c-0.6,1.9,0.1,2.1,2.4,2.3v1.1h-7.3v-1.1c1.9-0.2,2.4-0.5,3.4-3l6.2-15.4l1.4-0.3c1.9,5.2,3.9,10.5,5.9,15.4c1.1,2.8,1.4,3,3.3,3.2
		v1.1H1252.1z M1249.5,1189.3c-0.9,2.1-1.7,4.1-2.4,6.3h4.7L1249.5,1189.3z"/>
	<path class="st2" d="M1293.1,1185.3c-2.1,0.3-2.5,0.7-3.4,3.2c-0.8,2.3-3,9.3-4.9,15.4h-1.7c-1.5-4.3-3.2-8.7-4.9-13.2
		c-1.5,4.5-3,8.8-4.4,13.2h-1.7c-1.2-4.2-3.1-10.4-4.8-15.6c-0.7-2.3-1.2-2.8-3-2.9v-1.1h9v1.1c-2.2,0.2-2.3,0.7-1.9,2.2
		c1,3.4,2,6.9,3,10.1c1.5-4.2,2.9-8.7,4.3-13.3h1.6c1.6,4.6,3.3,9,5,13.3c1.1-3.2,2.5-8.2,2.9-9.9c0.4-1.8,0.1-2.3-2.4-2.5v-1.1h7.3
		V1185.3z"/>
	<path class="st2" d="M1332.4,1191.9c-2,0.2-2.2,0.6-3.3,1.9c-0.9,1.1-1.7,2.2-2.6,3.5c1.9,1.8,4,4.2,5.3,6.3l-0.1,0.4
		c-3,0-4.8-0.7-5.2-1c-0.4-0.4-1.4-1.3-2.4-2.4c-1.9,2.4-3.7,3.5-5.8,3.5c-4.2,0-6.2-2.9-6.2-5.5c0-2.5,1.3-3.6,4.3-5.3
		c-1.2-1.2-2.1-2.5-2.1-4.3c0-2.7,2.3-5,5.4-5c3,0,5,1.9,5,4.3c0,1-0.5,1.9-1.3,2.5c-0.7,0.5-1.5,1-2.4,1.5c0.8,0.7,2.6,2.3,4.7,4.3
		c0.5-0.8,1.1-1.5,1.5-2.5c0.6-1.3,0.6-1.8-1.6-2v-1.1h6.9V1191.9z M1319.6,1201.2c1.4,0,2.8-0.8,3.5-1.7c-2.1-2.2-3.5-3.5-6-5.6
		c-1,0.9-1.3,1.8-1.3,3.2C1315.7,1199.9,1317.6,1201.2,1319.6,1201.2z M1319.4,1185c-1.2,0-2,1.1-2,2.5c0,1.5,0.7,2.4,2.6,3.9
		c1-0.8,1.7-1.7,1.7-3.5C1321.7,1186.4,1320.9,1185,1319.4,1185z"/>
	<path class="st2" d="M1361.7,1185.3c-2.1,0.2-2.4,0.4-2.4,2.9v9.8c0,3.5-0.3,6.3-3.2,8.6c-1.2,0.9-2.5,1.5-3.7,1.8l-0.5-1.1
		c1.7-0.7,2.5-1.8,2.9-3.7c0.3-1.7,0.3-3.5,0.3-5.7v-9.7c0-2.5-0.3-2.7-2.6-2.9v-1.1h9.1V1185.3z"/>
	<path class="st2" d="M1390.3,1185.3c-1.9,0.2-2.4,0.7-2.5,1.8c-0.1,0.9-0.1,1.9-0.1,4v3.9c0,2.6-0.4,5.1-2.1,6.9
		c-1.4,1.4-3.5,2.1-5.6,2.1c-2,0-3.9-0.4-5.3-1.5c-1.7-1.3-2.6-3.1-2.6-6.5v-7.5c0-2.7-0.3-2.9-2.5-3.2v-1.1h9.2v1.1
		c-2.2,0.2-2.5,0.4-2.5,3.2v7.9c0,3.3,1.6,5.5,4.8,5.5c3.5,0,5.1-2.6,5.1-7.1v-3.7c0-2.1-0.1-3.1-0.1-4c-0.1-1.4-1-1.7-3-1.8v-1.1
		h7.4V1185.3z"/>
	<path class="st2" d="M1408.9,1189.1c-0.6-1.9-1.4-4.1-4.2-4.1c-1.7,0-2.9,1.2-2.9,2.9c0,1.6,1.1,2.6,3.7,3.9
		c3.2,1.6,5.2,3.1,5.2,6.1c0,3.5-2.9,6.1-7.2,6.1c-1.9,0-3.6-0.5-5-0.9c-0.2-0.7-0.7-3.8-0.9-5.2l1.2-0.3c0.6,1.9,2.3,5.1,5.2,5.1
		c1.8,0,2.9-1.1,2.9-3c0-1.7-1.1-2.7-3.6-4.1c-3.1-1.7-5.1-3.2-5.1-6.2c0-3.1,2.4-5.6,6.9-5.6c2.1,0,3.6,0.4,4.3,0.5
		c0.1,1.1,0.3,2.6,0.6,4.5L1408.9,1189.1z"/>
	<path class="st2" d="M1435.4,1189.3c-0.3-1.4-1-2.5-1.3-2.9c-0.5-0.6-0.8-0.9-2.5-0.9h-1.9v14c0,2.5,0.3,2.7,2.9,2.9v1.1h-9.9v-1.1
		c2.5-0.2,2.8-0.4,2.8-2.9v-14h-1.8c-1.7,0-2.1,0.3-2.7,1c-0.4,0.6-0.8,1.6-1.2,2.8h-1.1c0.2-2.2,0.4-4.5,0.5-5.9h0.9
		c0.4,0.7,0.8,0.7,1.7,0.7h11.9c0.8,0,1.2-0.2,1.7-0.7h0.9c0,1.2,0.1,3.9,0.3,5.8L1435.4,1189.3z"/>
	<path class="st2" d="M1444.5,1203.5v-1.1c2.3-0.2,2.5-0.4,2.5-2.9v-11.3c0-2.5-0.3-2.7-2.5-2.9v-1.1h9.2v1.1
		c-2.2,0.2-2.5,0.4-2.5,2.9v11.3c0,2.5,0.3,2.6,2.5,2.9v1.1H1444.5z"/>
	<path class="st2" d="M1480.7,1198.4c-0.4,1.5-1.2,3.7-1.7,4.8c-0.8,0.2-3.2,0.8-5.5,0.8c-8,0-11.3-5.1-11.3-9.9
		c0-6.2,4.7-10.3,11.8-10.3c2.6,0,4.9,0.6,5.6,0.7c0.1,1.4,0.4,3.6,0.6,4.9l-1.2,0.2c-0.6-2.3-1.5-3.4-3.1-4
		c-0.7-0.3-1.8-0.4-2.6-0.4c-4.3,0-6.5,3.6-6.5,8.3c0,5.4,2.8,9.1,6.9,9.1c2.5,0,4.2-1.3,5.8-4.6L1480.7,1198.4z"/>
	<path class="st2" d="M1505.5,1198.5c-0.1,0.8-1,4.2-1.3,5.1h-15.4v-1.1c2.7-0.3,2.9-0.4,2.9-2.9v-11.4c0-2.5-0.4-2.7-2.4-2.9v-1.1
		h9.7c3.1,0,4.2,0,4.6-0.1c0,0.5,0.2,3,0.3,4.8l-1.2,0.1c-0.3-1-0.8-2.2-1.3-2.8c-0.5-0.6-0.9-0.8-2.4-0.8h-1.9
		c-1.1,0-1.3,0.1-1.3,1.1v6.2h2.9c1.7,0,2-0.4,2.4-2.6h1.2v6.6h-1.2c-0.5-2.2-0.7-2.6-2.4-2.6h-2.9v5.1c0,2.1,0.1,2.7,1.9,2.7h2.1
		c1.7,0,2.1-0.2,2.8-1c0.7-0.9,1.3-2,1.8-3L1505.5,1198.5z"/>
</g>
<g>
	<path class="st1" d="M758.9,1149.9c-1.7-0.9-2.9-2.2-3.8-3.9c-0.8-1.7-1.3-3.6-1.3-5.8c0-2.2,0.4-4.2,1.2-5.9c0.8-1.7,2-3,3.5-4
		c1.6-1,3.6-1.5,6-1.5c1.6,0,3,0.2,4.1,0.5c1.1,0.3,2.2,0.8,3.3,1.5v3.8h-4.3v-2.3c-0.4-0.2-0.8-0.3-1.3-0.4
		c-0.4-0.1-0.9-0.1-1.6-0.1c-2.1,0-3.8,0.7-4.9,2.2c-1.1,1.5-1.7,3.5-1.7,6.2c0,2.6,0.6,4.6,1.8,6s3,2.1,5.2,2.1
		c1,0,1.9-0.1,2.7-0.3c0.8-0.2,1.6-0.6,2.5-1.1l1.5,2.4c-1.1,0.7-2.1,1.2-3.1,1.5c-1,0.3-2.3,0.4-3.8,0.4
		C762.6,1151.3,760.6,1150.8,758.9,1149.9z"/>
	<path class="st1" d="M782.3,1148.5c-1.6-1.8-2.5-4.6-2.5-8.3c0-3.8,0.8-6.6,2.4-8.4c1.6-1.9,4.2-2.8,7.7-2.8c3.5,0,6,0.9,7.6,2.8
		c1.6,1.9,2.4,4.7,2.4,8.4c0,3.7-0.8,6.5-2.5,8.3s-4.2,2.8-7.6,2.8C786.5,1151.3,784,1150.3,782.3,1148.5z M794.3,1146.5
		c0.9-1.3,1.4-3.3,1.4-6.3c0-3-0.5-5.1-1.4-6.4c-0.9-1.3-2.4-1.9-4.4-1.9c-1.4,0-2.5,0.3-3.3,0.8c-0.8,0.5-1.5,1.4-1.9,2.6
		c-0.4,1.2-0.6,2.8-0.6,4.9c0,2.9,0.5,5,1.4,6.3c0.9,1.2,2.4,1.9,4.4,1.9C791.9,1148.3,793.4,1147.7,794.3,1146.5z"/>
	<path class="st1" d="M807,1147.9h0.9c0.5,0,0.8-0.1,1-0.3c0.2-0.2,0.3-0.5,0.3-1v-13c0-0.4-0.1-0.8-0.3-1c-0.2-0.2-0.5-0.3-1-0.3
		H807v-2.9h6.6l5.3,12.2l5.3-12.2h6.6v2.9h-0.9c-0.4,0-0.7,0.1-0.9,0.3c-0.2,0.2-0.3,0.5-0.3,1v13c0,0.4,0.1,0.8,0.3,1
		c0.2,0.2,0.5,0.3,0.9,0.3h0.9v2.9h-8.5v-2.9h0.9c0.4,0,0.7-0.1,0.9-0.3c0.2-0.2,0.3-0.5,0.3-0.9v-10.4l-4,9.2h-3l-4-9.2v10.4
		c0,0.8,0.4,1.2,1.3,1.2h0.9v2.9H807V1147.9z"/>
	<path class="st1" d="M839.1,1147.9h0.9c0.5,0,0.8-0.1,1-0.3c0.2-0.2,0.3-0.5,0.3-1v-13c0-0.4-0.1-0.8-0.3-1c-0.2-0.2-0.5-0.3-1-0.3
		h-0.9v-2.9h6.6l5.3,12.2l5.3-12.2h6.6v2.9H862c-0.4,0-0.7,0.1-0.9,0.3c-0.2,0.2-0.3,0.5-0.3,1v13c0,0.4,0.1,0.8,0.3,1
		c0.2,0.2,0.5,0.3,0.9,0.3h0.9v2.9h-8.5v-2.9h0.9c0.4,0,0.7-0.1,0.9-0.3c0.2-0.2,0.3-0.5,0.3-0.9v-10.4l-4,9.2h-3l-4-9.2v10.4
		c0,0.8,0.4,1.2,1.3,1.2h0.9v2.9h-8.6V1147.9z"/>
	<path class="st1" d="M871.2,1147.9h0.9c0.5,0,0.8-0.1,1-0.3c0.2-0.2,0.3-0.5,0.3-1v-13.1c0-0.4-0.1-0.7-0.3-0.9
		c-0.2-0.2-0.5-0.3-1-0.3h-0.9v-2.9h8.5v2.9h-0.9c-0.4,0-0.8,0.1-0.9,0.3c-0.2,0.2-0.3,0.5-0.3,0.9v13.2c0,0.4,0.1,0.7,0.3,0.9
		c0.2,0.2,0.5,0.3,0.9,0.3h0.9v2.9h-8.5V1147.9z"/>
	<path class="st1" d="M891.8,1150.6c-1.4-0.5-2.6-1.1-3.7-1.9v-3.5h4.4v2.3c1.1,0.6,2.4,0.9,3.9,0.9c2.3,0,3.5-0.9,3.5-2.8
		c0-0.6-0.2-1.2-0.5-1.6c-0.4-0.4-0.8-0.8-1.4-1.1c-0.6-0.3-1.5-0.7-2.7-1.2c-1.6-0.7-2.9-1.3-3.9-1.9c-1-0.6-1.7-1.3-2.3-2.1
		c-0.5-0.8-0.8-1.8-0.8-2.9c0-1.9,0.8-3.4,2.3-4.3c1.5-1,3.4-1.5,5.8-1.5c2.9,0,5.4,0.8,7.5,2.5v3.3h-4.4v-2.1
		c-0.8-0.5-1.9-0.7-3.3-0.7c-2.4,0-3.5,0.9-3.5,2.7c0,0.6,0.2,1.2,0.7,1.7c0.4,0.5,1,0.9,1.6,1.2c0.6,0.3,1.4,0.7,2.5,1.1
		c1.8,0.7,3.1,1.3,4,1.8c0.9,0.5,1.6,1.1,2.1,1.9c0.5,0.8,0.8,1.8,0.8,3c0,1.1-0.3,2.2-0.9,3.1c-0.6,0.9-1.5,1.6-2.7,2.1
		s-2.6,0.8-4.2,0.8S893.2,1151,891.8,1150.6z"/>
	<path class="st1" d="M915.8,1150.6c-1.4-0.5-2.6-1.1-3.7-1.9v-3.5h4.4v2.3c1.1,0.6,2.4,0.9,3.9,0.9c2.3,0,3.5-0.9,3.5-2.8
		c0-0.6-0.2-1.2-0.5-1.6c-0.4-0.4-0.8-0.8-1.4-1.1c-0.6-0.3-1.5-0.7-2.7-1.2c-1.6-0.7-2.9-1.3-3.9-1.9c-1-0.6-1.7-1.3-2.3-2.1
		c-0.5-0.8-0.8-1.8-0.8-2.9c0-1.9,0.8-3.4,2.3-4.3c1.5-1,3.4-1.5,5.8-1.5c2.9,0,5.4,0.8,7.5,2.5v3.3h-4.4v-2.1
		c-0.8-0.5-1.9-0.7-3.3-0.7c-2.4,0-3.5,0.9-3.5,2.7c0,0.6,0.2,1.2,0.7,1.7c0.4,0.5,1,0.9,1.6,1.2c0.6,0.3,1.4,0.7,2.5,1.1
		c1.8,0.7,3.1,1.3,4,1.8c0.9,0.5,1.6,1.1,2.1,1.9c0.5,0.8,0.8,1.8,0.8,3c0,1.1-0.3,2.2-0.9,3.1c-0.6,0.9-1.5,1.6-2.7,2.1
		s-2.6,0.8-4.2,0.8S917.2,1151,915.8,1150.6z"/>
	<path class="st1" d="M936.6,1147.9h0.9c0.5,0,0.8-0.1,1-0.3c0.2-0.2,0.3-0.5,0.3-1v-13.1c0-0.4-0.1-0.7-0.3-0.9
		c-0.2-0.2-0.5-0.3-1-0.3h-0.9v-2.9h8.5v2.9h-0.9c-0.4,0-0.8,0.1-0.9,0.3c-0.2,0.2-0.3,0.5-0.3,0.9v13.2c0,0.4,0.1,0.7,0.3,0.9
		c0.2,0.2,0.5,0.3,0.9,0.3h0.9v2.9h-8.5V1147.9z"/>
	<path class="st1" d="M954.8,1148.5c-1.6-1.8-2.5-4.6-2.5-8.3c0-3.8,0.8-6.6,2.4-8.4c1.6-1.9,4.2-2.8,7.7-2.8c3.5,0,6,0.9,7.6,2.8
		c1.6,1.9,2.4,4.7,2.4,8.4c0,3.7-0.8,6.5-2.5,8.3c-1.6,1.8-4.2,2.8-7.6,2.8C959,1151.3,956.5,1150.3,954.8,1148.5z M966.8,1146.5
		c0.9-1.3,1.4-3.3,1.4-6.3c0-3-0.5-5.1-1.4-6.4c-0.9-1.3-2.4-1.9-4.4-1.9c-1.4,0-2.5,0.3-3.3,0.8c-0.8,0.5-1.5,1.4-1.9,2.6
		c-0.4,1.2-0.6,2.8-0.6,4.9c0,2.9,0.5,5,1.4,6.3c0.9,1.2,2.4,1.9,4.4,1.9C964.4,1148.3,965.9,1147.7,966.8,1146.5z"/>
	<path class="st1" d="M979.7,1147.9h0.9c0.9,0,1.3-0.4,1.3-1.2v-13.2c0-0.4-0.1-0.7-0.3-0.9c-0.2-0.2-0.5-0.3-1-0.3h-0.9v-2.9h5.4
		l9.2,14.3v-10.2c0-0.8-0.4-1.2-1.3-1.2h-0.9v-2.9h8.6v2.9h-0.9c-0.4,0-0.7,0.1-0.9,0.3c-0.2,0.2-0.3,0.5-0.3,0.9v17.2h-3.3
		l-9.1-14.2v10.1c0,0.4,0.1,0.7,0.3,0.9c0.2,0.2,0.5,0.3,0.9,0.3h0.9v2.9h-8.6V1147.9z"/>
	<path class="st1" d="M1009.1,1147.9h0.9c0.5,0,0.8-0.1,1-0.3c0.2-0.2,0.3-0.5,0.3-1v-13.1c0-0.4-0.1-0.7-0.3-0.9
		c-0.2-0.2-0.5-0.3-1-0.3h-0.9v-2.9h16.2v4.7h-4v-0.6c0-0.8-0.4-1.2-1.3-1.2h-4.5v6.3h5.1v2.9h-5.1v6.4h4.5c0.4,0,0.8-0.1,1-0.3
		c0.2-0.2,0.3-0.5,0.3-1v-0.6h4v4.7h-16.2V1147.9z"/>
	<path class="st1" d="M1033.7,1147.9h0.8c0.9,0,1.3-0.4,1.3-1.2v-13.2c0-0.4-0.1-0.7-0.3-0.9c-0.2-0.2-0.5-0.3-1-0.3h-0.8v-2.9h11.1
		c2.3,0,4.1,0.6,5.4,1.7c1.3,1.1,1.9,2.7,1.9,4.8c0,1.6-0.4,2.9-1.2,4s-2,1.8-3.5,2.2l2.6,4.7c0.2,0.4,0.5,0.6,0.8,0.8
		c0.3,0.2,0.7,0.2,1.1,0.2h0.8v2.9h-7.7v-2.9h1.3l-2.8-5.2h-3.4v4.1c0,0.4,0.1,0.7,0.2,0.9c0.2,0.2,0.4,0.3,0.9,0.3h0.8v2.9h-8.2
		V1147.9z M1044.2,1139.8c2.5,0,3.8-1.3,3.8-3.9c0-1.3-0.3-2.2-0.9-2.8s-1.5-0.8-2.9-0.8h-4.1v7.5H1044.2z"/>
	<path class="st1" d="M1080.8,1148.5c-1.6-1.8-2.5-4.6-2.5-8.3c0-3.8,0.8-6.6,2.4-8.4c1.6-1.9,4.2-2.8,7.7-2.8c3.5,0,6,0.9,7.6,2.8
		c1.6,1.9,2.4,4.7,2.4,8.4c0,3.7-0.8,6.5-2.5,8.3c-1.6,1.8-4.2,2.8-7.6,2.8C1085,1151.3,1082.5,1150.3,1080.8,1148.5z
		 M1092.8,1146.5c0.9-1.3,1.4-3.3,1.4-6.3c0-3-0.5-5.1-1.4-6.4c-0.9-1.3-2.4-1.9-4.4-1.9c-1.4,0-2.5,0.3-3.3,0.8
		c-0.8,0.5-1.5,1.4-1.9,2.6c-0.4,1.2-0.6,2.8-0.6,4.9c0,2.9,0.5,5,1.4,6.3s2.4,1.9,4.4,1.9
		C1090.4,1148.3,1091.9,1147.7,1092.8,1146.5z"/>
	<path class="st1" d="M1106.8,1147.9h0.9c0.5,0,0.8-0.1,1-0.3c0.2-0.2,0.3-0.5,0.3-1v-13.1c0-0.4-0.1-0.7-0.3-0.9
		c-0.2-0.2-0.5-0.3-1-0.3h-0.9v-2.9h16.2v4.7h-4v-0.6c0-0.8-0.4-1.2-1.3-1.2h-4.5v6.3h5.1v2.9h-5.1v5.1c0,0.4,0.1,0.7,0.3,0.9
		c0.2,0.2,0.5,0.3,0.9,0.3h0.9v2.9h-8.6V1147.9z"/>
	<path class="st1" d="M1151.2,1148.5c-1.6-1.8-2.5-4.6-2.5-8.3c0-3.8,0.8-6.6,2.4-8.4c1.6-1.9,4.2-2.8,7.7-2.8c3.5,0,6,0.9,7.6,2.8
		c1.6,1.9,2.4,4.7,2.4,8.4c0,3.7-0.8,6.5-2.5,8.3c-1.6,1.8-4.2,2.8-7.6,2.8C1155.4,1151.3,1152.9,1150.3,1151.2,1148.5z
		 M1163.2,1146.5c0.9-1.3,1.4-3.3,1.4-6.3c0-3-0.5-5.1-1.4-6.4c-0.9-1.3-2.4-1.9-4.4-1.9c-1.4,0-2.5,0.3-3.3,0.8
		c-0.8,0.5-1.5,1.4-1.9,2.6c-0.4,1.2-0.6,2.8-0.6,4.9c0,2.9,0.5,5,1.4,6.3s2.4,1.9,4.4,1.9
		C1160.8,1148.3,1162.3,1147.7,1163.2,1146.5z"/>
	<path class="st1" d="M1175.1,1147.9h1c0.5,0,0.9-0.1,1.2-0.2s0.5-0.5,0.6-0.9l6.1-17.3h4.2l6,17.3c0.2,0.5,0.4,0.8,0.6,0.9
		c0.3,0.2,0.7,0.2,1.2,0.2h0.9v2.9h-8.2v-2.9h1.5l-1.2-3.6h-6l-1.2,3.6h1.5v2.9h-8.2V1147.9z M1188.3,1141.9l-2.2-6.8l-2.3,6.8
		H1188.3z"/>
	<path class="st1" d="M1205.7,1147.9h0.8c0.5,0,0.8-0.1,1-0.3c0.2-0.2,0.3-0.5,0.3-0.9v-14.4h-2.6c-0.5,0-0.8,0.1-1,0.3
		c-0.2,0.2-0.3,0.5-0.3,0.9v1.2h-3.1v-5.3h18.3v5.3h-3.1v-1.2c0-0.4-0.1-0.8-0.3-0.9c-0.2-0.2-0.5-0.3-1-0.3h-2.6v14.4
		c0,0.4,0.1,0.7,0.3,0.9c0.2,0.2,0.5,0.3,1,0.3h0.8v2.9h-8.6V1147.9z"/>
	<path class="st1" d="M1227.2,1147.9h0.9c0.5,0,0.8-0.1,1-0.3c0.2-0.2,0.3-0.5,0.3-1v-13.1c0-0.4-0.1-0.7-0.3-0.9
		c-0.2-0.2-0.5-0.3-1-0.3h-0.9v-2.9h8.4v2.9h-0.7c-0.4,0-0.8,0.1-0.9,0.3c-0.2,0.2-0.3,0.5-0.3,0.9v5.1h7.8v-5.1
		c0-0.4-0.1-0.8-0.3-1c-0.2-0.2-0.5-0.3-0.9-0.3h-0.7v-2.9h8.4v2.9h-0.9c-0.5,0-0.8,0.1-1,0.3c-0.2,0.2-0.3,0.5-0.3,0.9v13.1
		c0,0.4,0.1,0.8,0.3,1c0.2,0.2,0.5,0.3,1,0.3h0.9v2.9h-8.4v-2.9h0.7c0.4,0,0.7-0.1,0.9-0.3c0.2-0.2,0.3-0.5,0.3-1v-5.1h-7.8v5.1
		c0,0.4,0.1,0.8,0.3,1c0.2,0.2,0.5,0.3,0.9,0.3h0.7v2.9h-8.4V1147.9z"/>
	<path class="st1" d="M1260.1,1150.6c-1.4-0.5-2.6-1.1-3.7-1.9v-3.5h4.4v2.3c1.1,0.6,2.4,0.9,3.9,0.9c2.3,0,3.5-0.9,3.5-2.8
		c0-0.6-0.2-1.2-0.5-1.6c-0.4-0.4-0.8-0.8-1.4-1.1s-1.5-0.7-2.7-1.2c-1.6-0.7-2.9-1.3-3.9-1.9s-1.7-1.3-2.3-2.1
		c-0.5-0.8-0.8-1.8-0.8-2.9c0-1.9,0.8-3.4,2.3-4.3c1.5-1,3.4-1.5,5.8-1.5c2.9,0,5.4,0.8,7.5,2.5v3.3h-4.4v-2.1
		c-0.8-0.5-1.9-0.7-3.3-0.7c-2.4,0-3.5,0.9-3.5,2.7c0,0.6,0.2,1.2,0.7,1.7c0.4,0.5,1,0.9,1.6,1.2c0.6,0.3,1.4,0.7,2.5,1.1
		c1.8,0.7,3.1,1.3,4,1.8c0.9,0.5,1.6,1.1,2.1,1.9c0.5,0.8,0.8,1.8,0.8,3c0,1.1-0.3,2.2-0.9,3.1c-0.6,0.9-1.5,1.6-2.7,2.1
		s-2.6,0.8-4.2,0.8C1263,1151.3,1261.5,1151,1260.1,1150.6z"/>
	<path class="st1" d="M1298.2,1147.9h1c0.5,0,0.9-0.1,1.2-0.2s0.5-0.5,0.6-0.9l6.1-17.3h4.2l6,17.3c0.2,0.5,0.4,0.8,0.6,0.9
		c0.3,0.2,0.7,0.2,1.2,0.2h0.9v2.9h-8.2v-2.9h1.5l-1.2-3.6h-6l-1.2,3.6h1.5v2.9h-8.2V1147.9z M1311.4,1141.9l-2.2-6.8l-2.3,6.8
		H1311.4z"/>
	<path class="st1" d="M1327.6,1147.9h0.9c0.9,0,1.3-0.4,1.3-1.2v-13.2c0-0.4-0.1-0.7-0.3-0.9c-0.2-0.2-0.5-0.3-1-0.3h-0.9v-2.9h5.4
		l9.2,14.3v-10.2c0-0.8-0.4-1.2-1.3-1.2h-0.9v-2.9h8.6v2.9h-0.9c-0.4,0-0.7,0.1-0.9,0.3c-0.2,0.2-0.3,0.5-0.3,0.9v17.2h-3.3
		l-9.1-14.2v10.1c0,0.4,0.1,0.7,0.3,0.9c0.2,0.2,0.5,0.3,0.9,0.3h0.9v2.9h-8.6V1147.9z"/>
	<path class="st1" d="M1357.1,1147.9h0.9c0.5,0,0.8-0.1,1-0.3c0.2-0.2,0.3-0.5,0.3-1v-13.1c0-0.4-0.1-0.7-0.3-0.9
		c-0.2-0.2-0.5-0.3-1-0.3h-0.9v-2.9h9.9c3.1,0,5.4,0.9,6.9,2.8s2.3,4.5,2.3,8c0,3.2-0.8,5.7-2.3,7.7c-1.5,1.9-3.8,2.9-6.8,2.9h-9.9
		V1147.9z M1366.3,1147.9c2,0,3.4-0.6,4.2-1.9c0.8-1.3,1.3-3.2,1.3-5.8c0-2.7-0.4-4.6-1.3-5.9c-0.8-1.3-2.3-1.9-4.3-1.9h-2.9v15.6
		H1366.3z"/>
	<path class="st1" d="M1401.8,1147.9h0.9c0.9,0,1.3-0.4,1.3-1.2v-13.2c0-0.4-0.1-0.7-0.3-0.9c-0.2-0.2-0.5-0.3-1-0.3h-0.9v-2.9h5.4
		l9.2,14.3v-10.2c0-0.8-0.4-1.2-1.3-1.2h-0.9v-2.9h8.6v2.9h-0.9c-0.4,0-0.7,0.1-0.9,0.3c-0.2,0.2-0.3,0.5-0.3,0.9v17.2h-3.3
		l-9.1-14.2v10.1c0,0.4,0.1,0.7,0.3,0.9c0.2,0.2,0.5,0.3,0.9,0.3h0.9v2.9h-8.6V1147.9z"/>
	<path class="st1" d="M1432.5,1148.5c-1.6-1.8-2.5-4.6-2.5-8.3c0-3.8,0.8-6.6,2.4-8.4c1.6-1.9,4.2-2.8,7.7-2.8c3.5,0,6,0.9,7.6,2.8
		c1.6,1.9,2.4,4.7,2.4,8.4c0,3.7-0.8,6.5-2.5,8.3c-1.6,1.8-4.2,2.8-7.6,2.8C1436.7,1151.3,1434.2,1150.3,1432.5,1148.5z
		 M1444.5,1146.5c0.9-1.3,1.4-3.3,1.4-6.3c0-3-0.5-5.1-1.4-6.4c-0.9-1.3-2.4-1.9-4.4-1.9c-1.4,0-2.5,0.3-3.3,0.8
		c-0.8,0.5-1.5,1.4-1.9,2.6c-0.4,1.2-0.6,2.8-0.6,4.9c0,2.9,0.5,5,1.4,6.3s2.4,1.9,4.4,1.9
		C1442.1,1148.3,1443.6,1147.7,1444.5,1146.5z"/>
	<path class="st1" d="M1461.9,1147.9h0.8c0.5,0,0.8-0.1,1-0.3c0.2-0.2,0.3-0.5,0.3-0.9v-14.4h-2.6c-0.5,0-0.8,0.1-1,0.3
		c-0.2,0.2-0.3,0.5-0.3,0.9v1.2h-3.1v-5.3h18.3v5.3h-3.1v-1.2c0-0.4-0.1-0.8-0.3-0.9c-0.2-0.2-0.5-0.3-1-0.3h-2.6v14.4
		c0,0.4,0.1,0.7,0.3,0.9c0.2,0.2,0.5,0.3,1,0.3h0.8v2.9h-8.6V1147.9z"/>
	<path class="st1" d="M1479.3,1147.9h1c0.5,0,0.9-0.1,1.2-0.2s0.5-0.5,0.6-0.9l6.1-17.3h4.2l6,17.3c0.2,0.5,0.4,0.8,0.6,0.9
		c0.3,0.2,0.7,0.2,1.2,0.2h0.9v2.9h-8.2v-2.9h1.5l-1.2-3.6h-6l-1.2,3.6h1.5v2.9h-8.2V1147.9z M1492.5,1141.9l-2.2-6.8l-2.3,6.8
		H1492.5z"/>
	<path class="st1" d="M1508.7,1147.9h0.8c0.9,0,1.3-0.4,1.3-1.2v-13.2c0-0.4-0.1-0.7-0.3-0.9c-0.2-0.2-0.5-0.3-1-0.3h-0.8v-2.9h11.1
		c2.3,0,4.1,0.6,5.4,1.7c1.3,1.1,1.9,2.7,1.9,4.8c0,1.6-0.4,2.9-1.2,4s-2,1.8-3.5,2.2l2.6,4.7c0.2,0.4,0.5,0.6,0.8,0.8
		c0.3,0.2,0.7,0.2,1.1,0.2h0.8v2.9h-7.7v-2.9h1.3l-2.8-5.2h-3.4v4.1c0,0.4,0.1,0.7,0.2,0.9c0.2,0.2,0.4,0.3,0.9,0.3h0.8v2.9h-8.2
		V1147.9z M1519.2,1139.8c2.5,0,3.8-1.3,3.8-3.9c0-1.3-0.3-2.2-0.9-2.8s-1.5-0.8-2.9-0.8h-4.1v7.5H1519.2z"/>
	<path class="st1" d="M1539.8,1147.9h0.8c0.5,0,0.8-0.1,1-0.3c0.2-0.2,0.3-0.5,0.3-0.9v-3.8l-5-9.2c-0.3-0.5-0.6-0.9-0.9-1.1
		c-0.3-0.2-0.7-0.3-1.3-0.3h-0.8v-2.9h8v2.9h-0.5c-0.4,0-0.6,0.1-0.6,0.4c0,0.2,0.1,0.4,0.3,0.8l2.9,5.9l2.9-5.9
		c0.2-0.4,0.3-0.6,0.3-0.8c0-0.2-0.2-0.4-0.6-0.4h-0.5v-2.9h8v2.9h-0.8c-0.6,0-1,0.1-1.3,0.3c-0.3,0.2-0.6,0.5-0.9,1.1l-5,9.2v3.8
		c0,0.4,0.1,0.7,0.3,0.9c0.2,0.2,0.5,0.3,1,0.3h0.8v2.9h-8.6V1147.9z"/>
	<path class="st1" d="M1579.9,1147.9h0.8c0.9,0,1.3-0.4,1.3-1.2v-13.2c0-0.4-0.1-0.7-0.3-0.9c-0.2-0.2-0.5-0.3-1-0.3h-0.8v-2.9h11.5
		c2.3,0,4.1,0.6,5.4,1.7c1.3,1.1,2,2.8,2,5c0,2.2-0.7,3.8-2,5.1c-1.3,1.2-3.1,1.8-5.4,1.8h-5.1v3.6c0,0.8,0.4,1.2,1.3,1.2h0.9v2.9
		h-8.6V1147.9z M1590.8,1140.2c1.3,0,2.2-0.3,2.8-1c0.6-0.7,0.9-1.7,0.9-3.1c0-1.4-0.3-2.4-0.9-3c-0.6-0.6-1.5-0.9-2.8-0.9h-4.5v7.9
		H1590.8z"/>
	<path class="st1" d="M1610.9,1149.5c-1.4-1.2-2.1-2.8-2.1-4.8v-11.2c0-0.4-0.1-0.7-0.3-0.9c-0.2-0.2-0.5-0.3-1-0.3h-0.7v-2.9h8.2
		v2.9h-0.7c-0.4,0-0.8,0.1-1,0.3c-0.2,0.2-0.3,0.5-0.3,0.9v11.4c0,2.3,1.4,3.5,4.2,3.5s4.2-1.2,4.2-3.5v-11.4c0-0.4-0.1-0.7-0.3-0.9
		c-0.2-0.2-0.5-0.3-1-0.3h-0.7v-2.9h8.2v2.9h-0.7c-0.4,0-0.8,0.1-1,0.3c-0.2,0.2-0.3,0.5-0.3,0.9v11.2c0,2-0.7,3.7-2.1,4.8
		s-3.5,1.8-6.3,1.8C1614.4,1151.3,1612.3,1150.7,1610.9,1149.5z"/>
	<path class="st1" d="M1635.7,1147.9h0.9c0.5,0,0.8-0.1,1-0.3c0.2-0.2,0.3-0.5,0.3-1v-13.1c0-0.4-0.1-0.7-0.3-0.9
		c-0.2-0.2-0.5-0.3-1-0.3h-0.9v-2.9h11.7c1.9,0,3.3,0.5,4.4,1.5c1,1,1.6,2.4,1.6,4.3c0,1-0.3,2-0.8,2.8c-0.5,0.8-1.2,1.5-2.2,1.9
		c2.2,0.9,3.3,2.5,3.3,4.9c0,1.8-0.5,3.2-1.6,4.3s-2.5,1.6-4.3,1.6h-12.1V1147.9z M1645.8,1138.6c1,0,1.7-0.3,2.3-0.8
		c0.6-0.5,0.9-1.3,0.9-2.4c0-2.1-1-3.1-3.1-3.1h-3.8v6.3H1645.8z M1646.4,1147.9c0.9,0,1.6-0.3,2.2-0.8c0.5-0.5,0.8-1.4,0.8-2.4
		c0-1.1-0.3-1.9-0.9-2.4c-0.6-0.5-1.4-0.7-2.5-0.7h-3.8v6.4H1646.4z"/>
	<path class="st1" d="M1662,1147.9h0.8c0.5,0,0.8-0.1,1-0.3c0.2-0.2,0.3-0.5,0.3-1v-13.1c0-0.4-0.1-0.7-0.3-0.9
		c-0.2-0.2-0.5-0.3-1-0.3h-0.9v-2.9h8.6v2.9h-0.9c-0.5,0-0.8,0.1-1,0.3c-0.2,0.2-0.3,0.5-0.3,0.9v14.4h4.5c0.4,0,0.8-0.1,1-0.3
		c0.2-0.2,0.3-0.5,0.3-1v-1.2h4v5.3H1662V1147.9z"/>
	<path class="st1" d="M1685.6,1147.9h0.9c0.5,0,0.8-0.1,1-0.3c0.2-0.2,0.3-0.5,0.3-1v-13.1c0-0.4-0.1-0.7-0.3-0.9
		c-0.2-0.2-0.5-0.3-1-0.3h-0.9v-2.9h8.5v2.9h-0.9c-0.4,0-0.8,0.1-0.9,0.3c-0.2,0.2-0.3,0.5-0.3,0.9v13.2c0,0.4,0.1,0.7,0.3,0.9
		c0.2,0.2,0.5,0.3,0.9,0.3h0.9v2.9h-8.5V1147.9z"/>
	<path class="st1" d="M1706.5,1149.9c-1.7-0.9-2.9-2.2-3.8-3.9c-0.8-1.7-1.3-3.6-1.3-5.8c0-2.2,0.4-4.2,1.2-5.9c0.8-1.7,2-3,3.5-4
		c1.6-1,3.6-1.5,6-1.5c1.6,0,3,0.2,4.1,0.5c1.1,0.3,2.2,0.8,3.3,1.5v3.8h-4.3v-2.3c-0.4-0.2-0.8-0.3-1.3-0.4
		c-0.4-0.1-0.9-0.1-1.6-0.1c-2.1,0-3.8,0.7-4.9,2.2c-1.1,1.5-1.7,3.5-1.7,6.2c0,2.6,0.6,4.6,1.8,6s3,2.1,5.2,2.1
		c1,0,1.9-0.1,2.7-0.3c0.8-0.2,1.6-0.6,2.5-1.1l1.5,2.4c-1.1,0.7-2.1,1.2-3.1,1.5c-1,0.3-2.3,0.4-3.8,0.4
		C1710.2,1151.3,1708.1,1150.8,1706.5,1149.9z"/>
</g>
<g>
	<path class="st2" d="M753.4,972.3h1.7c0.9,0,1.6-0.1,2.1-0.4c0.5-0.3,0.8-0.8,1.1-1.7l10.8-30.7h7.4l10.7,30.7
		c0.3,0.8,0.7,1.4,1.1,1.7c0.5,0.3,1.2,0.4,2.2,0.4h1.6v5.1h-14.6v-5.1h2.7l-2.1-6.4h-10.7l-2.2,6.4h2.7v5.1h-14.6V972.3z
		 M776.8,961.7l-4-12.1l-4.1,12.1H776.8z"/>
	<path class="st2" d="M805.6,972.3h1.5c1.5,0,2.3-0.7,2.3-2.2v-23.4c0-0.7-0.2-1.3-0.5-1.6s-0.9-0.5-1.8-0.5h-1.5v-5.1h9.7
		l16.3,25.4v-18.1c0-1.4-0.8-2.2-2.3-2.2h-1.6v-5.1H843v5.1h-1.6c-0.7,0-1.3,0.2-1.6,0.5c-0.4,0.4-0.5,0.9-0.5,1.6v30.6h-5.9
		l-16.2-25.2v18c0,0.7,0.2,1.3,0.5,1.6c0.3,0.4,0.9,0.5,1.7,0.5h1.5v5.1h-15.2V972.3z"/>
	<path class="st2" d="M857.9,972.3h1.5c0.8,0,1.4-0.2,1.8-0.6s0.5-0.9,0.5-1.7v-23.3c0-0.7-0.2-1.3-0.5-1.6s-0.9-0.5-1.8-0.5h-1.5
		v-5.1h17.6c5.5,0,9.5,1.6,12.2,4.9c2.7,3.3,4,8,4,14.1c0,5.6-1.4,10.2-4.1,13.6s-6.8,5.2-12.1,5.2h-17.6V972.3z M874.3,972.3
		c3.5,0,6-1.1,7.5-3.4c1.5-2.3,2.3-5.7,2.3-10.3c0-4.7-0.7-8.2-2.2-10.5c-1.5-2.3-4-3.5-7.6-3.5h-5.2v27.7H874.3z"/>
	<path class="st2" d="M946.3,975.9c-3-1.6-5.2-3.9-6.7-6.9c-1.5-2.9-2.3-6.4-2.3-10.2c0-3.9,0.7-7.4,2-10.4c1.4-3,3.5-5.4,6.3-7.1
		c2.8-1.7,6.4-2.6,10.6-2.6c2.8,0,5.3,0.3,7.3,0.8c2,0.5,3.9,1.4,5.9,2.6v6.7h-7.7v-4c-0.7-0.3-1.5-0.5-2.2-0.7
		c-0.7-0.1-1.7-0.2-2.8-0.2c-3.8,0-6.7,1.3-8.7,3.9c-2,2.6-3,6.3-3,11c0,4.6,1.1,8.1,3.3,10.6c2.2,2.5,5.3,3.7,9.3,3.7
		c1.8,0,3.4-0.2,4.8-0.6c1.4-0.4,2.9-1,4.5-1.9l2.8,4.3c-1.9,1.3-3.7,2.1-5.6,2.6c-1.9,0.5-4.1,0.7-6.8,0.7
		C952.8,978.3,949.2,977.5,946.3,975.9z"/>
	<path class="st2" d="M987.8,973.4c-2.9-3.3-4.4-8.2-4.4-14.8c0-6.7,1.4-11.7,4.3-15c2.8-3.3,7.4-5,13.6-5c6.1,0,10.6,1.7,13.5,5
		c2.9,3.3,4.3,8.3,4.3,15c0,6.6-1.5,11.5-4.4,14.8c-2.9,3.3-7.4,4.9-13.4,4.9C995.3,978.3,990.8,976.7,987.8,973.4z M1009.1,969.8
		c1.6-2.2,2.4-5.9,2.4-11.1c0-5.3-0.8-9.1-2.4-11.4c-1.6-2.3-4.2-3.4-7.8-3.4c-2.4,0-4.4,0.5-5.9,1.4c-1.5,1-2.6,2.5-3.3,4.7
		c-0.7,2.2-1.1,5-1.1,8.6c0,5.2,0.8,9,2.4,11.2c1.6,2.2,4.2,3.3,7.8,3.3C1004.9,973.1,1007.5,972,1009.1,969.8z"/>
	<path class="st2" d="M1031.7,972.3h1.5c0.8,0,1.4-0.2,1.8-0.6c0.4-0.4,0.5-0.9,0.5-1.7v-23.1c0-0.8-0.2-1.4-0.5-1.7
		c-0.4-0.4-0.9-0.6-1.8-0.6h-1.5v-5.1h11.7l9.4,21.7l9.4-21.7h11.7v5.1h-1.6c-0.7,0-1.3,0.2-1.6,0.6c-0.4,0.4-0.5,0.9-0.5,1.7v23.1
		c0,0.8,0.2,1.4,0.5,1.7c0.4,0.4,0.9,0.6,1.6,0.6h1.6v5.1h-15.2v-5.1h1.6c0.7,0,1.3-0.2,1.6-0.5s0.5-0.9,0.5-1.6v-18.4l-7,16.4h-5.3
		l-7.1-16.4v18.4c0,1.4,0.8,2.2,2.3,2.2h1.6v5.1h-15.2V972.3z"/>
	<path class="st2" d="M1088.7,972.3h1.5c1.6,0,2.3-0.7,2.3-2.2v-23.4c0-0.7-0.2-1.3-0.6-1.6s-1-0.5-1.8-0.5h-1.5v-5.1h20.4
		c4.1,0,7.3,1,9.6,3c2.3,2,3.5,5,3.5,8.8c0,3.8-1.2,6.8-3.5,9c-2.4,2.2-5.6,3.3-9.6,3.3h-9v6.4c0,1.4,0.8,2.2,2.3,2.2h1.6v5.1h-15.2
		V972.3z M1108,958.6c2.2,0,3.9-0.6,5-1.8c1.1-1.2,1.6-3,1.6-5.4c0-2.5-0.5-4.3-1.6-5.3c-1.1-1-2.7-1.5-5-1.5h-8v14H1108z"/>
	<path class="st2" d="M1128,972.3h1.7c0.9,0,1.6-0.1,2.1-0.4s0.8-0.8,1.1-1.7l10.8-30.7h7.4l10.7,30.7c0.3,0.8,0.7,1.4,1.1,1.7
		c0.5,0.3,1.2,0.4,2.2,0.4h1.6v5.1h-14.6v-5.1h2.7l-2.1-6.4h-10.7l-2.2,6.4h2.7v5.1H1128V972.3z M1151.5,961.7l-4-12.1l-4.1,12.1
		H1151.5z"/>
	<path class="st2" d="M1180.2,972.3h1.5c1.5,0,2.3-0.7,2.3-2.2v-23.4c0-0.7-0.2-1.3-0.5-1.6c-0.4-0.4-0.9-0.5-1.8-0.5h-1.5v-5.1h9.7
		l16.3,25.4v-18.1c0-1.4-0.8-2.2-2.3-2.2h-1.6v-5.1h15.3v5.1h-1.6c-0.7,0-1.3,0.2-1.6,0.5s-0.5,0.9-0.5,1.6v30.6h-5.9l-16.2-25.2v18
		c0,0.7,0.2,1.3,0.5,1.6c0.3,0.4,0.9,0.5,1.7,0.5h1.5v5.1h-15.2V972.3z"/>
	<path class="st2" d="M1242,972.3h1.5c0.8,0,1.4-0.2,1.8-0.6s0.5-0.9,0.5-1.7v-6.7l-8.9-16.4c-0.5-0.9-1-1.6-1.6-1.9
		c-0.5-0.3-1.3-0.5-2.3-0.5h-1.3v-5.1h14.2v5.1h-0.8c-0.7,0-1,0.2-1,0.6c0,0.3,0.2,0.8,0.5,1.4l5.2,10.5l5.2-10.5
		c0.3-0.6,0.5-1.1,0.5-1.4c0-0.4-0.3-0.6-1-0.6h-0.8v-5.1h14.2v5.1h-1.3c-1,0-1.8,0.2-2.3,0.5c-0.5,0.3-1,1-1.6,1.9l-9,16.4v6.7
		c0,0.7,0.2,1.3,0.6,1.6s1,0.5,1.8,0.5h1.5v5.1H1242V972.3z"/>
	<path class="st2" d="M1313.3,972.3h1.7c0.9,0,1.6-0.1,2.1-0.4s0.8-0.8,1.1-1.7l10.8-30.7h7.4l10.7,30.7c0.3,0.8,0.7,1.4,1.1,1.7
		c0.5,0.3,1.2,0.4,2.2,0.4h1.6v5.1h-14.6v-5.1h2.7l-2.1-6.4h-10.7l-2.2,6.4h2.7v5.1h-14.6V972.3z M1336.8,961.7l-4-12.1l-4.1,12.1
		H1336.8z"/>
	<path class="st2" d="M1365.5,972.3h1.5c0.8,0,1.4-0.2,1.8-0.6c0.4-0.4,0.5-0.9,0.5-1.7v-23.3c0-0.7-0.2-1.3-0.5-1.6
		c-0.4-0.4-0.9-0.5-1.8-0.5h-1.5v-5.1h17.6c5.5,0,9.5,1.6,12.2,4.9c2.7,3.3,4,8,4,14.1c0,5.6-1.4,10.2-4.1,13.6
		c-2.8,3.5-6.8,5.2-12.1,5.2h-17.6V972.3z M1382,972.3c3.5,0,6-1.1,7.5-3.4c1.5-2.3,2.3-5.7,2.3-10.3c0-4.7-0.7-8.2-2.2-10.5
		c-1.5-2.3-4-3.5-7.6-3.5h-5.2v27.7H1382z"/>
	<path class="st2" d="M1414.7,947.2c-0.4-1-0.8-1.7-1.3-2c-0.5-0.3-1.4-0.5-2.5-0.5h-1v-5.1h10.5l8.7,27.9l8.6-27.9h10.6v5.1h-1
		c-1.2,0-2.1,0.2-2.6,0.5c-0.5,0.3-1,1-1.3,2l-10.5,30.3h-7.4L1414.7,947.2z"/>
	<path class="st2" d="M1464.8,973.4c-2.9-3.3-4.4-8.2-4.4-14.8c0-6.7,1.4-11.7,4.3-15c2.8-3.3,7.4-5,13.6-5c6.1,0,10.6,1.7,13.5,5
		c2.9,3.3,4.3,8.3,4.3,15c0,6.6-1.5,11.5-4.4,14.8c-2.9,3.3-7.4,4.9-13.4,4.9C1472.2,978.3,1467.7,976.7,1464.8,973.4z M1486,969.8
		c1.6-2.2,2.4-5.9,2.4-11.1c0-5.3-0.8-9.1-2.4-11.4c-1.6-2.3-4.2-3.4-7.8-3.4c-2.4,0-4.4,0.5-5.9,1.4c-1.5,1-2.6,2.5-3.3,4.7
		c-0.7,2.2-1.1,5-1.1,8.6c0,5.2,0.8,9,2.4,11.2c1.6,2.2,4.2,3.3,7.8,3.3C1481.8,973.1,1484.4,972,1486,969.8z"/>
	<path class="st2" d="M1519,975.9c-3-1.6-5.2-3.9-6.7-6.9c-1.5-2.9-2.3-6.4-2.3-10.2c0-3.9,0.7-7.4,2-10.4c1.4-3,3.5-5.4,6.3-7.1
		c2.8-1.7,6.4-2.6,10.6-2.6c2.8,0,5.3,0.3,7.3,0.8c2,0.5,3.9,1.4,5.9,2.6v6.7h-7.7v-4c-0.7-0.3-1.5-0.5-2.2-0.7
		c-0.7-0.1-1.7-0.2-2.8-0.2c-3.8,0-6.7,1.3-8.7,3.9c-2,2.6-3,6.3-3,11c0,4.6,1.1,8.1,3.3,10.6c2.2,2.5,5.3,3.7,9.3,3.7
		c1.8,0,3.4-0.2,4.8-0.6c1.4-0.4,2.9-1,4.5-1.9l2.8,4.3c-1.9,1.3-3.7,2.1-5.6,2.6c-1.9,0.5-4.1,0.7-6.8,0.7
		C1525.6,978.3,1522,977.5,1519,975.9z"/>
	<path class="st2" d="M1555.6,972.3h1.7c0.9,0,1.6-0.1,2.1-0.4s0.8-0.8,1.1-1.7l10.8-30.7h7.4l10.7,30.7c0.3,0.8,0.7,1.4,1.1,1.7
		c0.5,0.3,1.2,0.4,2.2,0.4h1.6v5.1h-14.6v-5.1h2.7l-2.1-6.4h-10.7l-2.2,6.4h2.7v5.1h-14.6V972.3z M1579.1,961.7l-4-12.1l-4.1,12.1
		H1579.1z"/>
	<path class="st2" d="M1610.1,972.3h1.5c0.8,0,1.4-0.2,1.8-0.5s0.5-0.9,0.5-1.6v-25.5h-4.6c-0.8,0-1.4,0.2-1.8,0.5
		c-0.4,0.3-0.5,0.9-0.5,1.7v2.2h-5.6v-9.4h32.6v9.4h-5.6v-2.2c0-0.8-0.2-1.3-0.5-1.7c-0.4-0.3-0.9-0.5-1.8-0.5h-4.6v25.5
		c0,0.7,0.2,1.3,0.6,1.6c0.4,0.4,1,0.5,1.8,0.5h1.5v5.1h-15.3V972.3z"/>
	<path class="st2" d="M1648.3,972.3h1.5c0.8,0,1.4-0.2,1.8-0.6c0.4-0.4,0.5-0.9,0.5-1.7v-23.3c0-0.7-0.2-1.3-0.5-1.6
		c-0.4-0.4-0.9-0.5-1.8-0.5h-1.5v-5.1h28.8v8.3h-7v-1.1c0-1.4-0.8-2.2-2.3-2.2h-8v11.2h9v5.2h-9v11.3h8c0.8,0,1.4-0.2,1.7-0.5
		c0.4-0.4,0.6-0.9,0.6-1.7v-1.1h7v8.4h-28.8V972.3z"/>
	<path class="st2" d="M1698.5,977.1c-2.5-0.8-4.7-1.9-6.5-3.3v-6.3h7.8v4c1.9,1.1,4.2,1.6,7,1.6c4.1,0,6.2-1.7,6.2-5
		c0-1.1-0.3-2.1-0.9-2.8c-0.6-0.8-1.5-1.4-2.5-2c-1.1-0.5-2.7-1.3-4.8-2.2c-2.9-1.2-5.2-2.3-6.9-3.3s-3.1-2.3-4-3.7
		c-1-1.4-1.4-3.1-1.4-5.1c0-3.4,1.3-6,4-7.7c2.7-1.7,6.1-2.6,10.3-2.6c5.2,0,9.6,1.5,13.3,4.5v5.8h-7.8v-3.7
		c-1.5-0.9-3.4-1.3-5.9-1.3c-4.2,0-6.3,1.6-6.3,4.9c0,1.1,0.4,2.1,1.2,3c0.8,0.8,1.7,1.5,2.8,2.1c1.1,0.5,2.5,1.2,4.4,1.9
		c3.2,1.3,5.6,2.4,7.2,3.3c1.6,0.9,2.9,2,3.8,3.4c0.9,1.4,1.4,3.2,1.4,5.4c0,2-0.5,3.8-1.6,5.4c-1.1,1.6-2.7,2.8-4.7,3.7
		s-4.6,1.4-7.5,1.4C1703.7,978.3,1701,977.9,1698.5,977.1z"/>
</g>
<g>
	<path class="st1" d="M843.2,833.3c-7.6,1.3-8.5,1.9-8.5,11.1v10.4c0,4.9,0.1,9.5,0.8,13.1c-6.8,1.2-21.5,4.5-32.3,4.5
		c-31.3,0-49.3-19.3-49.3-46c0-30.4,24.4-45.6,52.8-45.6c10.8,0,22.5,2.7,26.9,3.1c0.3,5.9,1.3,16.2,2.3,23.6l-5.2,0.9
		c-3.2-11.5-8.1-17.3-16.4-20.1c-3.1-1.1-8-1.6-11.3-1.6c-16.1,0-28.3,14.2-28.3,37.4c0,23.8,8.3,42.5,30.1,42.5
		c2.7,0,6.1-0.4,8.5-1.9c2-1.2,3.1-3.5,3.1-7.7V845c0-9.5-1.9-10.4-13.1-11.7v-5h39.9V833.3z"/>
	<path class="st1" d="M929.4,871.1c-0.8,0-2.4,0-4-0.1c-16.9-0.8-21.9-4.5-25.9-10.1c-5.3-7.4-9.2-15.7-13.7-23.8
		c-2-3.6-3.9-4.5-8.1-4.5l-2.7-0.1v19.7c0,10.9,1.3,11.9,11.3,13.1v5h-40.8v-5c10.1-1.1,11.3-2.2,11.3-13.1v-51.7
		c0-10.7-1.3-12.1-11.3-13v-5h38.7c11.9,0,18.7,1.3,24.1,5.1c5.3,3.6,8.9,9.6,8.9,18c0,12-7.9,18.4-16.7,21.9
		c2,4.1,7.2,12.8,11.2,19c4.7,7.4,7.6,11.1,10.1,14c3.1,3.5,4.5,4.6,8.4,5.9L929.4,871.1z M878.5,826.9c5.7,0,10.1-0.9,13.1-3.5
		c4.4-3.8,6.3-8.9,6.3-15.8c0-14.3-8.1-19.4-15.6-19.4c-3.6,0-5.3,0.5-6.1,1.3c-0.9,0.8-1.2,2.4-1.2,5.1v32.3H878.5z"/>
	<path class="st1" d="M986.9,870.3v-5c8.4-1.2,8.4-2.7,6.5-8.5c-1.3-4.1-3.5-10.1-5.5-15.5h-26c-1.5,4.2-3.3,9.3-4.7,13.5
		c-2.8,8.5,0.4,9.6,10.9,10.5v5h-32.9v-5c8.4-1.1,10.5-2.3,15.1-13.6l27.7-69.8l6.4-1.2c8.5,23.5,17.6,47.5,26.3,70.1
		c4.9,12.6,6.1,13.5,14.8,14.6v5H986.9z M975.1,805.7c-3.9,9.7-7.6,18.8-10.9,28.6h21.2L975.1,805.7z"/>
	<path class="st1" d="M1103,847c-1.9,6.8-5.3,17-7.5,21.7c-3.5,0.8-14.4,3.5-24.5,3.5c-35.9,0-50.7-23.4-50.7-44.8
		c0-27.9,21.1-46.8,53.1-46.8c11.6,0,21.9,2.8,25.2,3.2c0.7,6.3,1.6,16.3,2.5,22.3l-5.3,0.9c-2.8-10.5-6.8-15.5-13.9-18.4
		c-3.2-1.3-8-1.9-11.6-1.9c-19.3,0-29.1,16.3-29.1,37.5c0,24.7,12.5,41.4,30.8,41.4c11.2,0,18.7-5.9,25.9-20.8L1103,847z"/>
	<path class="st1" d="M1182.5,847.3c-0.7,3.6-4.4,19.2-5.6,22.9h-69.2v-4.9c12.1-1.2,12.9-1.9,12.9-13.2v-51.6
		c0-11.5-1.6-12.3-10.7-13.1v-5h43.3c14,0,18.7-0.1,20.5-0.3c0.1,2.4,0.8,13.5,1.3,21.9l-5.2,0.7c-1.2-4.6-3.5-10.1-5.7-12.6
		c-2.4-2.7-4.1-3.5-10.9-3.5h-8.7c-5.1,0-5.6,0.3-5.6,4.9v28.2h13.1c7.5,0,8.8-2,10.8-11.6h5.2v30.1h-5.2
		c-2.1-10-3.2-11.6-10.9-11.6H1139v23.2c0,9.3,0.3,12.1,8.5,12.3h9.5c7.5,0,9.5-0.9,12.4-4.6c3.3-3.9,6-8.9,8.1-13.5L1182.5,847.3z"
		/>
	<path class="st1" d="M1220.8,782.5h40.4v5c-9.6,1.2-11.1,1.9-11.1,13.2v22.7c2.8-0.8,6-3,10.4-7.2c9.1-9,14.9-16.3,18.9-21.5
		c3.2-4.2,2.4-6.2-3.7-7l-2.5-0.3v-5h34.9v5c-9.2,1.2-14.1,1.9-22.5,11.1c-5.2,5.5-11.7,12.3-17.6,18.8
		c8.4,11.9,18.8,26.3,29.1,39.4c4.9,6.5,6.7,7.4,13.5,8.5v5H1284c-5.6-7.7-17.3-24-26.8-37.7c-2.8-4.1-4.9-4.9-7.1-4.5V852
		c0,11.5,0.9,11.9,11.2,13.2v5h-40.5v-5c10-1.1,11.3-1.8,11.3-13.2v-51.3c0-11.3-1.3-12.3-11.3-13.2V782.5z"/>
	<path class="st1" d="M1315.4,870.3v-5c10.1-0.9,11.3-1.8,11.3-13.1v-51.4c0-11.3-1.3-12.4-11.3-13.2v-5h41.2v5
		c-10,0.9-11.3,1.9-11.3,13.2v51.4c0,11.2,1.2,12,11.3,13.1v5H1315.4z"/>
	<path class="st1" d="M1435.4,870.3v-5c10.1-1.1,10.8-2,10.8-14.2l-0.1-52.6c-9.6,23.2-20.1,48.9-29.7,71.8h-4.4
		c-8.7-22-18.1-47.1-27.7-70.7c-1.7,42.4-1.7,50.8-1.7,55.6c0.1,7.3,2.8,9.2,12.8,10.1v5h-33.1v-5c7.6-0.7,11.1-2.2,12.1-10.3
		c0.5-4,1.1-11.7,4.1-56.3c0.4-6.5-0.5-10.1-12-11.2v-5h28.8L1421,842l25.9-59.5h28.1v5c-10.7,1.1-11.9,2.2-11.6,13l1.1,50.6
		c0.1,12.2,0.7,12.7,11.5,14.2v5H1435.4z"/>
	<path class="st1" d="M1532.2,870.3v-5c8.4-1.2,8.4-2.7,6.5-8.5c-1.3-4.1-3.5-10.1-5.5-15.5h-26c-1.5,4.2-3.3,9.3-4.7,13.5
		c-2.8,8.5,0.4,9.6,10.9,10.5v5h-32.9v-5c8.4-1.1,10.5-2.3,15.1-13.6l27.7-69.8l6.4-1.2c8.5,23.5,17.6,47.5,26.3,70.1
		c4.9,12.6,6.1,13.5,14.8,14.6v5H1532.2z M1520.5,805.7c-3.9,9.7-7.6,18.8-10.9,28.6h21.2L1520.5,805.7z"/>
	<path class="st1" d="M1670.7,787.5c-8.1,1.1-10.7,2.8-11.1,8.9c-0.4,5.3-0.8,9.9-0.8,21.6v53.7h-7.5l-55.6-67.5v30.5
		c0,11.7,0.3,17,0.7,20.9c0.5,5.9,3.3,9,13.2,9.6v5h-33.1v-5c7.6-0.7,10.9-2.7,11.7-9c0.5-4.9,0.8-9.7,0.8-21.5v-32
		c0-4.5-0.3-7.4-2.8-10.9c-2.4-3.4-5.6-3.8-11.2-4.3v-5h26l50.8,59.8V818c0-11.7-0.1-16.2-0.5-21.2c-0.4-5.8-2.5-8.6-13.6-9.3v-5
		h32.9V787.5z"/>
	<path class="st1" d="M1676.9,870.3v-5c10.1-0.9,11.3-1.8,11.3-13.1v-51.4c0-11.3-1.3-12.4-11.3-13.2v-5h41.2v5
		c-10,0.9-11.3,1.9-11.3,13.2v51.4c0,11.2,1.2,12,11.3,13.1v5H1676.9z"/>
</g>
<g>
	<g>
		<path class="st0" d="M455.1,721.8h20.5c0,0-6.7,12-6.7,23.2s6,24.4,6,24.4c33.3-2.7,110.8,36.9,137.5,46.8c4,1.5,8.5,0.9,12.1-1.5
			c0.8-0.6,1.6-1.1,2.4-1.6c4.5-2.9,10.4-2.1,13.9,2.1l0,0c3.7,4.5,3.1,11.2-1.5,14.9c-0.6,0.5-1.3,1-2,1.5
			c-5.7,3.9-15.8,2.4-18.6,1.8c-0.4-0.1-0.9-0.2-1.3-0.4c-73.8-28-119.1-33-136.4-33.7c-4.5-0.2-8.3,3.2-8.6,7.6l-0.9,10.9
			c-0.2,2.6-0.3,5.3-0.3,8l0.8,201.7c0,9.9-0.3,22.1,3.5,29.3c3.8,7.2,3.3,19.2-1.7,25.9c-8.8,11.7-1.4,41.1,19.1,42.7
			c16.1,1.2,52.3,7.3,67.4,9.8c3.9,0.7,6.7,4.1,6.5,8l0,0c-0.1,4.2-3.6,7.6-7.9,7.6H456.9L455.1,721.8z"/>
		<g>
			<path class="st0" d="M622.8,1036.6c-3.4,0-6.6-0.2-9.6-0.5c-25.3-2.4-49.7-14.2-66.9-32.4c-1-1.1-1.3-2.7-0.7-4.1
				c0.6-1.4,2-2.3,3.5-2.3c0,0,0,0,0,0l149.1,0.6c1.6,0,3,1,3.5,2.4c0.6,1.5,0.2,3.1-1,4.2C671.9,1030.2,643.8,1036.6,622.8,1036.6z
				 M552.5,1002.6c15.7,15.4,41.3,28.8,70.7,28.8c22.4,0,47-7.7,71.1-28.2L552.5,1002.6z M697.3,1000.7
				C697.3,1000.7,697.3,1000.7,697.3,1000.7C697.3,1000.7,697.3,1000.7,697.3,1000.7L697.3,1000.7z"/>
			<path class="st2" d="M692.8,1008.6c-52.3,39.6-107.6,25.8-138.4-0.7c-2.9-2.5-1.1-7.2,2.9-7.2l132.9,0.5
				C694.2,1001.2,696,1006.1,692.8,1008.6z"/>
		</g>
		<g>
			<path class="st0" d="M698,1004.5H549.3c-1.6,0-3.2-0.8-4.1-2.2c-0.9-1.4-1-3.1-0.4-4.6l77.7-172.8c0.8-1.8,2.6-2.9,4.5-2.8
				c1.9,0,3.7,1.2,4.4,3l71.1,172.8c0.6,1.5,0.4,3.2-0.5,4.5C701.2,1003.7,699.7,1004.5,698,1004.5z M697.7,999.8L697.7,999.8
				L697.7,999.8z M549.9,999.3h147.6l-70.5-171.4L549.9,999.3z"/>
		</g>
	</g>
	<g>
		<path class="st0" d="M460.3,721.8h-20.5c0,0,6.7,12,6.7,23.2s-6,24.4-6,24.4c-33.3-2.7-110.8,36.9-137.5,46.8
			c-4,1.5-8.5,0.9-12.1-1.5c-0.8-0.6-1.6-1.1-2.4-1.6c-4.5-2.9-10.4-2.1-13.9,2.1l0,0c-3.7,4.5-3.1,11.2,1.5,14.9
			c0.6,0.5,1.3,1,2,1.5c5.7,3.9,15.8,2.4,18.6,1.8c0.4-0.1,0.9-0.2,1.3-0.4c73.8-28,119.1-33,136.4-33.7c4.5-0.2,8.3,3.2,8.6,7.6
			l0.9,10.9c0.2,2.6,0.3,5.3,0.3,8l-0.8,201.7c0,9.9,0.3,22.1-3.5,29.3c-3.8,7.2-3.3,19.2,1.7,25.9c8.8,11.7,1.4,41.1-19.1,42.7
			c-16.1,1.2-52.3,7.3-67.4,9.8c-3.9,0.7-6.7,4.1-6.5,8l0,0c0.1,4.2,3.6,7.6,7.9,7.6h102.1L460.3,721.8z"/>
		<g>
			<path class="st0" d="M214.7,1004.6c-1.2-1.1-1.6-2.7-1-4.2c0.6-1.5,1.9-2.4,3.5-2.4l149.1-0.6c0,0,0,0,0,0c1.5,0,2.9,0.9,3.5,2.3
				c0.6,1.4,0.3,3-0.7,4.1c-17.2,18.2-41.6,30-66.9,32.4c-3,0.3-6.2,0.5-9.6,0.5C271.7,1036.6,243.6,1030.2,214.7,1004.6z
				 M221.1,1003.2c24.2,20.4,48.8,28.2,71.1,28.2c29.4,0,55-13.4,70.7-28.8L221.1,1003.2z M218.2,1000.7
				C218.2,1000.7,218.2,1000.7,218.2,1000.7C218.2,1000.7,218.2,1000.7,218.2,1000.7L218.2,1000.7z"/>
			<path class="st2" d="M222.7,1008.6c52.3,39.6,107.6,25.8,138.4-0.7c2.9-2.5,1.1-7.2-2.9-7.2l-132.9,0.5
				C221.3,1001.2,219.5,1006.1,222.7,1008.6z"/>
		</g>
		<g>
			<path class="st0" d="M213.4,1002.3c-0.9-1.3-1.1-3-0.5-4.5l71.1-172.8c0.7-1.8,2.5-3,4.4-3c1.9,0,3.7,1.1,4.5,2.8l77.7,172.8
				c0.7,1.5,0.5,3.2-0.4,4.6c-0.9,1.4-2.4,2.2-4.1,2.2H217.4C215.8,1004.5,214.3,1003.7,213.4,1002.3z M217.8,999.8L217.8,999.8
				L217.8,999.8z M288.5,827.9L218,999.3h147.6L288.5,827.9z"/>
		</g>
	</g>
	<circle class="st0" cx="457.9" cy="725.3" r="17.8"/>
</g>
</svg>
