<?xml version="1.0" encoding="utf-8"?>
<!-- Generator: Adobe Illustrator 27.9.0, SVG Export Plug-In . SVG Version: 6.00 Build 0)  -->
<svg version="1.1" id="Layer_1" xmlns="http://www.w3.org/2000/svg" xmlns:xlink="http://www.w3.org/1999/xlink" x="0px" y="0px"
	 viewBox="0 0 2000 2000" style="enable-background:new 0 0 2000 2000;" xml:space="preserve">
<style type="text/css">
	.st0{fill:#FFFFFF;}
	.st1{fill:none;stroke:#03045E;stroke-width:3;stroke-miterlimit:10;}
	.st2{enable-background:new    ;}
	.st3{fill:#03045E;}
</style>
<rect class="st0" width="2000" height="2000"/>
<g>
	<path class="st1" d="M563.3,1217.5H268.7c-11.6,0-21-9.4-21-21v-129c0-11.6,9.4-21,21-21h294.6c11.6,0,21,9.4,21,21v129
		C584.2,1208.1,574.9,1217.5,563.3,1217.5z"/>
	<path class="st1" d="M502,1248.2L217.4,1172c-11.2-3-17.8-14.5-14.8-25.7l33.4-124.6c3-11.2,14.5-17.8,25.7-14.8l284.6,76.3
		c11.2,3,17.8,14.5,14.8,25.7l-33.4,124.6C524.6,1244.6,513.1,1251.2,502,1248.2z"/>
	<path class="st1" d="M434.8,1262l-255.1-147.3c-10-5.8-13.5-18.6-7.7-28.6l64.5-111.7c5.8-10,18.6-13.5,28.6-7.7L520.3,1114
		c10,5.8,13.5,18.6,7.7,28.6l-64.5,111.7C457.6,1264.4,444.8,1267.8,434.8,1262z"/>
	<path class="st1" d="M366.3,1258L158,1049.6c-8.2-8.2-8.2-21.5,0-29.6l91.2-91.2c8.2-8.2,21.5-8.2,29.6,0l208.3,208.3
		c8.2,8.2,8.2,21.5,0,29.6L396,1258C387.8,1266.2,374.5,1266.2,366.3,1258z"/>
	<path class="st1" d="M301.3,1236.3L154,981.2c-5.8-10-2.4-22.8,7.7-28.6L273.4,888c10-5.8,22.8-2.4,28.6,7.7l147.3,255.1
		c5.8,10,2.4,22.8-7.7,28.6L329.9,1244C319.9,1249.8,307,1246.4,301.3,1236.3z"/>
	<path class="st1" d="M244,1198.6L167.7,914c-3-11.2,3.6-22.7,14.8-25.7l124.6-33.4c11.2-3,22.7,3.6,25.7,14.8l76.3,284.6
		c3,11.2-3.6,22.7-14.8,25.7l-124.6,33.4C258.5,1216.4,247,1209.8,244,1198.6z"/>
	<path class="st1" d="M198.5,1147.3V852.7c0-11.6,9.4-21,21-21h129c11.6,0,21,9.4,21,21v294.6c0,11.6-9.4,21-21,21h-129
		C207.8,1168.3,198.5,1158.9,198.5,1147.3z"/>
	<path class="st1" d="M167.7,1086L244,801.4c3-11.2,14.5-17.8,25.7-14.8L394.3,820c11.2,3,17.8,14.5,14.8,25.7l-76.3,284.6
		c-3,11.2-14.5,17.8-25.7,14.8l-124.6-33.4C171.4,1108.7,164.8,1097.2,167.7,1086z"/>
	<path class="st1" d="M154,1018.8l147.3-255.1c5.8-10,18.6-13.5,28.6-7.7l111.7,64.5c10,5.8,13.5,18.6,7.7,28.6L302,1104.3
		c-5.8,10-18.6,13.5-28.6,7.7l-111.7-64.5C151.6,1041.7,148.2,1028.8,154,1018.8z"/>
	<path class="st1" d="M158,950.4L366.3,742c8.2-8.2,21.5-8.2,29.6,0l91.2,91.2c8.2,8.2,8.2,21.5,0,29.6l-208.3,208.3
		c-8.2,8.2-21.5,8.2-29.6,0L158,980C149.8,971.8,149.8,958.5,158,950.4z"/>
	<path class="st1" d="M179.7,885.3L434.8,738c10-5.8,22.8-2.4,28.6,7.7l64.5,111.7c5.8,10,2.4,22.8-7.7,28.6l-255.1,147.3
		c-10,5.8-22.8,2.4-28.6-7.7L172,913.9C166.2,903.9,169.6,891.1,179.7,885.3z"/>
	<path class="st1" d="M217.4,828L502,751.8c11.2-3,22.7,3.6,25.7,14.8L561,891.2c3,11.2-3.6,22.7-14.8,25.7l-284.6,76.3
		c-11.2,3-22.7-3.6-25.7-14.8l-33.4-124.6C199.6,842.5,206.2,831,217.4,828z"/>
	<path class="st1" d="M268.7,782.5h294.6c11.6,0,21,9.4,21,21v129c0,11.6-9.4,21-21,21H268.7c-11.6,0-21-9.4-21-21v-129
		C247.7,791.9,257.1,782.5,268.7,782.5z"/>
	<path class="st1" d="M330,751.8L614.6,828c11.2,3,17.8,14.5,14.8,25.7L596,978.3c-3,11.2-14.5,17.8-25.7,14.8l-284.6-76.3
		c-11.2-3-17.8-14.5-14.8-25.7l33.4-124.6C307.3,755.4,318.8,748.8,330,751.8z"/>
	<path class="st1" d="M397.2,738l255.1,147.3c10,5.8,13.5,18.6,7.7,28.6l-64.5,111.7c-5.8,10-18.6,13.5-28.6,7.7L311.7,886
		c-10-5.8-13.5-18.6-7.7-28.6l64.5-111.7C374.3,735.6,387.1,732.2,397.2,738z"/>
	<path class="st1" d="M465.6,742L674,950.4c8.2,8.2,8.2,21.5,0,29.6l-91.2,91.2c-8.2,8.2-21.5,8.2-29.6,0L344.8,862.9
		c-8.2-8.2-8.2-21.5,0-29.6L436,742C444.2,733.8,457.4,733.8,465.6,742z"/>
	<path class="st1" d="M530.7,763.7L678,1018.8c5.8,10,2.4,22.8-7.7,28.6L558.6,1112c-10,5.8-22.8,2.4-28.6-7.7L382.7,849.1
		c-5.8-10-2.4-22.8,7.7-28.6L502.1,756C512.1,750.2,524.9,753.6,530.7,763.7z"/>
	<path class="st1" d="M588,801.4l76.3,284.6c3,11.2-3.6,22.7-14.8,25.7l-124.6,33.4c-11.2,3-22.7-3.6-25.7-14.8l-76.3-284.6
		c-3-11.2,3.6-22.7,14.8-25.7l124.6-33.4C573.5,783.6,585,790.2,588,801.4z"/>
	<path class="st1" d="M633.5,852.7v294.6c0,11.6-9.4,21-21,21h-129c-11.6,0-21-9.4-21-21V852.7c0-11.6,9.4-21,21-21h129
		C624.1,831.7,633.5,841.1,633.5,852.7z"/>
	<path class="st1" d="M664.2,914L588,1198.6c-3,11.2-14.5,17.8-25.7,14.8L437.7,1180c-11.2-3-17.8-14.5-14.8-25.7l76.3-284.6
		c3-11.2,14.5-17.8,25.7-14.8l124.6,33.4C660.6,891.3,667.2,902.8,664.2,914z"/>
	<path class="st1" d="M678,981.2l-147.3,255.1c-5.8,10-18.6,13.5-28.6,7.7l-111.7-64.5c-10-5.8-13.5-18.6-7.7-28.6L530,895.7
		c5.8-10,18.6-13.5,28.6-7.7l111.7,64.5C680.4,958.3,683.8,971.2,678,981.2z"/>
	<path class="st1" d="M673.9,1049.6L465.6,1258c-8.2,8.2-21.5,8.2-29.6,0l-91.2-91.2c-8.2-8.2-8.2-21.5,0-29.6l208.3-208.3
		c8.2-8.2,21.5-8.2,29.6,0l91.2,91.2C682.1,1028.2,682.1,1041.5,673.9,1049.6z"/>
	<path class="st1" d="M652.3,1114.7L397.2,1262c-10,5.8-22.8,2.4-28.6-7.7L304,1142.6c-5.8-10-2.4-22.8,7.7-28.6l255.1-147.3
		c10-5.8,22.8-2.4,28.6,7.7l64.5,111.7C665.8,1096.1,662.3,1108.9,652.3,1114.7z"/>
	<path class="st1" d="M614.6,1172L330,1248.2c-11.2,3-22.7-3.6-25.7-14.8l-33.4-124.6c-3-11.2,3.6-22.7,14.8-25.7l284.6-76.3
		c11.2-3,22.7,3.6,25.7,14.8l33.4,124.6C632.4,1157.5,625.7,1169,614.6,1172z"/>
</g>
<g class="st2">
	<path class="st3" d="M800.2,1114.9V881.7c0-11.4,9.2-20.6,20.6-20.6l0,0c11.4,0,20.6,9.2,20.6,20.6v233.1
		c0,11.4-9.2,20.6-20.6,20.6l0,0C809.4,1135.4,800.2,1126.2,800.2,1114.9z M814.8,1032.2l-0.1-3.4c-0.2-4.7,1.6-9.3,5-12.6
		l153.2-150.3c3.1-3.1,7.3-4.8,11.7-4.8l0,0c14.8,0,22.3,17.9,11.8,28.4l-98,98.5l-23,24.3l-32.2,31.1
		C832.7,1053.5,815.4,1046.6,814.8,1032.2z M969.8,1129.4l-101.3-112.3c-6.4-7.1-6.3-17.9,0.3-24.8l2.1-2.2c7.4-7.8,20-7.5,27,0.6
		l99.3,114.4c10.3,11.8,1.9,30.2-13.8,30.2l0,0C978.2,1135.4,973.3,1133.2,969.8,1129.4z"/>
	<path class="st3" d="M1096,887.8c-7.7,0-14.1-2.4-19.1-7.1c-5.1-4.7-7.6-10.4-7.6-17.2c0-7.1,2.5-12.9,7.6-17.6
		c5.1-4.7,11.4-7.1,19.1-7.1s14.1,2.3,19.1,6.9c5.1,4.6,7.6,10.3,7.6,17c0,7.1-2.5,13-7.4,17.8C1110.4,885.4,1104,887.8,1096,887.8z
		 M1076.3,1115.7V947.5c0-10.9,8.8-19.7,19.7-19.7l0,0c10.9,0,19.7,8.8,19.7,19.7v168.2c0,10.9-8.8,19.7-19.7,19.7l0,0
		C1085.1,1135.4,1076.3,1126.6,1076.3,1115.7z"/>
	<path class="st3" d="M1287.4,1137.8c-21.9,0-41.4-4.6-58.4-13.7s-30.4-21.7-40.3-37.8c-9.9-16.1-14.8-34.3-14.8-54.7
		c0-20.6,4.9-38.9,14.8-54.9c9.9-15.9,23.3-28.4,40.3-37.4s36.5-13.5,58.4-13.5c21.7,0,41.1,4.5,58.2,13.5s30.6,21.4,40.3,37.2
		c9.7,15.8,14.6,34.2,14.6,55.1c0,20.6-4.9,38.9-14.6,54.9c-9.7,15.9-23.2,28.5-40.3,37.6
		C1328.5,1133.2,1309.1,1137.8,1287.4,1137.8z M1287.4,1104.9c14,0,26.5-3,37.6-9s19.8-14.6,26.1-25.7c6.3-11.1,9.5-24,9.5-38.6
		c0-14.9-3.2-27.8-9.5-38.6s-15-19.3-26.1-25.3s-23.7-9-37.6-9s-26.5,3-37.4,9c-11,6-19.7,14.4-26.3,25.3
		c-6.6,10.8-9.9,23.7-9.9,38.6c0,14.6,3.3,27.5,9.9,38.6s15.4,19.7,26.3,25.7C1261,1101.9,1273.4,1104.9,1287.4,1104.9z"/>
	<path class="st3" d="M1436,943.2L1436,943.2c0-8.5,6.9-15.5,15.5-15.5h108.1c8.5,0,15.5,6.9,15.5,15.5l0,0
		c0,8.5-6.9,15.5-15.5,15.5h-108.1C1443,958.7,1436,951.8,1436,943.2z M1526.2,1137.8c-21.9,0-39-5.6-51-16.8
		c-12.1-11.2-18.1-27.3-18.1-48.2V897.1c0-8.2,6.6-14.8,14.8-14.8h9.8c8.2,0,14.8,6.6,14.8,14.8v174c0,11.2,2.9,19.9,8.8,25.9
		s14.3,9,25.3,9c6.9,0,13.1-1,18.7-3c7.4-2.7,15.5,0.6,18.8,7.7l0.3,0.7c3.4,7.5,0.1,16.4-7.5,19.7c-2.8,1.2-5.7,2.2-8.7,3.1
		C1543.9,1136.6,1535.2,1137.8,1526.2,1137.8z"/>
	<path class="st3" d="M1698.4,1137.8c-16.2,0-30.4-2.6-42.6-7.8c-12.2-5.2-21.6-12.5-28.2-21.7c-6.6-9.3-9.9-19.8-9.9-31.5
		c0-11.2,2.8-21.4,8.4-30.6c5.6-9.1,14.8-16.5,27.6-21.9c12.8-5.5,30-8.2,51.6-8.2h58.4c5.9,0,10.7,4.8,10.7,10.7v5.6
		c0,5.9-4.8,10.7-10.7,10.7H1707c-19.7,0-33.1,3.1-39.9,9.4c-6.9,6.3-10.3,13.8-10.3,22.7c0,10.2,4.2,18.4,12.8,24.5
		c8.5,6.1,20.3,9.2,35.4,9.2c14.8,0,27.8-3.1,38.9-9.4c4.9-2.8,9.2-6.1,12.8-9.9c5.6-5.9,15.5-3.4,17.8,4.4l0,0
		c0.8,2.7,0.5,5.6-0.8,8.1c-5.4,10.3-13.9,18.7-25.6,25C1735,1134.2,1718.4,1137.8,1698.4,1137.8z M1760,1124.7v-31.9
		c0-0.9-0.1-1.7-0.3-2.6l-1.4-5.7c-0.2-0.8-0.3-1.7-0.3-2.6v-73.5c0-15.9-4.9-28.3-14.6-37s-24.3-13.1-43.8-13.1
		c-12.9,0-25.5,2-37.9,6.1c-8.3,2.7-15.7,6.1-22.3,10c-5.1,3.1-11.8,1.4-14.8-3.7l-5.6-9.7c-2.9-5-1.4-11.4,3.5-14.4
		c9.4-5.8,20-10.4,32-13.9c15.8-4.6,32.3-6.9,49.6-6.9c29.9,0,52.9,6.9,69.1,20.8c16.2,13.8,24.3,35,24.3,63.5v114.7
		c0,5.9-4.8,10.7-10.7,10.7h-16.1C1764.8,1135.4,1760,1130.6,1760,1124.7z"/>
</g>
</svg>
